<?xml version="1.0" encoding="UTF-8"?>
<svg id="Layer_1" data-name="Layer 1" xmlns="http://www.w3.org/2000/svg" xmlns:xlink="http://www.w3.org/1999/xlink" version="1.1" viewBox="241.3 223.6 596 633">
  <defs>
    <style>
      .cls-1 {
        mask: url(#mask);
      }

      .cls-2 {
        fill: #fff;
      }

      .cls-2, .cls-3 {
        stroke-width: 0px;
      }

      .cls-3 {
        fill: #eaf4fb;
      }

      .cls-4 {
        mask: url(#mask-1);
      }
    </style>
    <mask id="mask" x="241.3" y="223.6" width="596" height="633" maskUnits="userSpaceOnUse">
      <g id="mask0_1_2" data-name="mask0 1 2">
        <path class="cls-2" d="M241.3,223.6h596v633H241.3V223.6Z"/>
      </g>
    </mask>
    <mask id="mask-1" x="427.8" y="347.2" width="224.3" height="309.4" maskUnits="userSpaceOnUse">
      <g id="mask1_1_2" data-name="mask1 1 2">
        <path class="cls-2" d="M427.8,347.2h224v309h-224v-309Z"/>
      </g>
    </mask>
  </defs>
  <g class="cls-1">
    <path class="cls-3" d="M783.7,333.1c3.9,68.1-4.6,137.3-25.7,202.2-33.8,104.8-104.2,196.9-196.1,257.6-6.6,4.4-13.7,9-20.7,13.1-85.6-49.3-157.9-121.3-209.1-205.7-54.5-89.7-85.8-194.6-87.1-299.5-16.5,187.1,53.4,376.8,202.5,494.6,20.8,16.7,42.8,31.8,65.8,45.4l8.9,5.2c6,3.3,19.2,10.5,19.2,10.5,0,0,0,0,0,0,20.3-15.1,39.8-31.1,58.1-48.3,41.2-38.5,77-83,105.7-131.5,60.7-102.9,86.5-224.6,78.5-343.5ZM834.1,299c-44.2-14.3-89.3-24.8-135-30.8-137.4-18.6-278.8,6.1-403.5,66.5,76.2-35.8,159.7-55.8,243.9-58.4,84.2,2,167.8,21.4,244.2,56.8h0c15.9,106.8-2.3,218.9-51.4,315.2-19.9,39.8-45.4,77.2-74.9,110.5-33.6,38-72.7,71.2-116,97.7,1.5-.8,13.4-7.4,18.9-10.6l8.9-5.2c22.8-13.7,44.8-29,65.5-45.8,148.3-118.8,216.8-308.8,199.3-495.8ZM539.3,223.6c-102.4,2.6-203.5,29.9-294.3,77.2,10,103.7,41.9,205,96,294.1,9.6,15.9,19.9,31.5,30.8,46.5-20.5-32.8-37.1-67.9-49.2-104.7-21.5-64.8-30.5-133.9-27-202h0c72.4-43.2,155-69.9,238.8-79.1,101.3-11.1,206,3.2,299.7,43.4-91-46.8-192.4-73.4-294.8-75.3Z"/>
  </g>
  <g class="cls-4">
    <path class="cls-3" d="M623.5,479.9v-49.2c0-46.1-37.4-83.5-83.5-83.5s-83.5,37.4-83.5,83.5v49.2c-16.2,2.2-28.7,16.1-28.7,32.9v110.6c0,18.3,14.9,33.2,33.2,33.2h157.9c18.3,0,33.2-14.9,33.2-33.2v-110.6c0-16.8-12.5-30.6-28.7-32.9ZM491.6,431.1c0-26.7,21.6-48.4,48.3-48.4s48.4,21.7,48.4,48.4v48.5h-96.7v-48.5ZM589.7,582.3c0,.6-.5,1.1-1.1,1.1h-33v33c0,.6-.5,1.1-1.1,1.1h-29.1c-.6,0-1.1-.5-1.1-1.1v-33h-33c-.6,0-1.1-.5-1.1-1.1v-29.1c0-.6.5-1.1,1.1-1.1h33v-33c0-.6.5-1.1,1.1-1.1h29.1c.6,0,1.1.5,1.1,1.1v33h33c.6,0,1.1.5,1.1,1.1v29.1Z"/>
  </g>
</svg>